<?xml version="1.0" encoding="utf-8"?>
<!-- Generator: Adobe Illustrator 21.0.0, SVG Export Plug-In . SVG Version: 6.00 Build 0)  -->
<svg version="1.1" id="レイヤー_1" xmlns="http://www.w3.org/2000/svg" xmlns:xlink="http://www.w3.org/1999/xlink" x="0px"
	 y="0px" width="95.8px" height="43.8px" viewBox="0 0 95.8 43.8" style="enable-background:new 0 0 95.8 43.8;"
	 xml:space="preserve">
<g>
	<g>
		<g>
			<path d="M51.8,36.2c0.2-0.2,0.3-0.6,0.3-0.6c-0.5,0.1-1,0.8-1.5,0.9c0,0,0-0.1,0-0.1c0.6-0.3,1.1-0.6,1.7-0.8
				c0-0.1,0.1-0.6,0.1-0.7l-0.1,0.5c0.1-0.4,0.2-0.7,0.3-1c0.1-0.3,0.1-0.6-0.2-0.8c-0.2-0.1-0.3-0.2-0.4-0.4
				c-0.4-0.6-0.7-1.2-0.8-1.8c-0.2-0.9-1.3-1.7-2.3-1.4c-0.3,0.1-0.6,0.3-0.9,0.4c-0.1,0-0.2,0-0.2,0c0-0.4-0.1-0.8-0.1-1.2
				c0-0.6-0.3-1-0.7-1.4c-0.5-0.3-1-0.4-1.6-0.3c-0.3,0.1-0.6,0.2-0.9,0.2c-0.4,0-0.7-0.1-1.1-0.1c-0.6-0.1-1.3-0.1-1.8,0.3
				c-0.5,0.3-0.9,0.6-1.1,1.1c-0.5-0.3-1.1-0.4-1-1.1c-0.3,0.3-0.1,0.5,0,0.7c0.1,0.3,0.1,0.5,0,0.7c-0.1,0-0.2,0-0.4,0
				c0.1-0.6,0.1-1.2-0.3-1.7c-0.4-0.4-0.7-1-1.3-1c-0.2-0.3-0.3-0.5-0.5-0.8c-0.4-0.5-0.7-0.9-1.1-1.3c-0.5-0.5-0.7-1-0.4-1.5
				c0,0.1,0.1,0.1,0.1,0.2c0.2,0.3,0.5,0.6,0.7,0.9c0.1,0.1,0.2,0.3,0,0.4c-0.1,0.1,0,0.2,0,0.3c0,0,0.1,0,0.1,0
				c0.1-0.1,0.2-0.2,0.2-0.3c0.4,0.4,0.8,0.7,1.1,1.1c0.3,0.4,0.6,0.8,0.9,1.3c-0.2-0.1-0.4-0.3-0.6-0.4c0.2,0.8,0.9,0.9,1.4,1.3
				c-0.2-0.5-0.3-1-0.6-1.4c-0.4-0.5-0.9-0.9-1.3-1.4c-0.3-0.5-0.8-0.8-1.2-1.2c-0.4-0.4-0.8-0.9-1-1.5c-0.2-0.4-0.5-0.8-1-1
				c-0.3-0.1-0.6-0.3-0.7-0.7c0-0.1-0.1-0.3-0.2-0.4c-0.2-0.3-0.5-0.5-0.7-0.8c-0.5-0.6-0.9-1.1-1.3-1.7c-0.1-0.1-0.2-0.2-0.3-0.3
				c0,0,0-0.1,0-0.1c0.7,0.1,1.4,0.2,2.1,0.3c-0.2,0.8-0.2,1.6,0.2,2.4c0-0.2,0-0.5,0-0.7c0-0.1,0-0.2,0.1-0.2
				c0.2-0.2,0.4-0.3,0.6-0.5c0.2,0.3,0.4,0.7,0.6,1.1c0.3,0.6,0.8,1,1.4,1.2c1.4,0.4,2.7-0.3,2.7-2c0-0.1,0-0.1,0.1-0.2
				c0.3-0.4,0.7-0.9,1-1.3c0,0,0.1,0,0.2,0.1c0,0,0.1-0.1,0.1-0.1c-0.1-0.3,0-0.8-0.4-1c-0.2-0.1-0.4-0.3-0.6-0.4
				c-0.4-0.2-0.4-0.2,0-0.5c0.5-0.5,0.6-0.9,0.2-1.4c-0.7-0.7-1.5-0.8-2.4-0.8c-0.5,0-1,0.1-1.4,0.3c-0.5,0.2-0.9,0.5-1,1
				c-0.1,0.3-0.2,0.6-0.4,0.9c-0.4-1-0.4-2.1-1.6-2.4c0.2,0.6,0.4,1.2,0.3,1.8c0,0.2-0.1,0.4-0.1,0.5c0.1,0.3-0.1,0.5-0.4,0.4
				c-0.2-0.5-0.7-0.8-0.9-0.8c0,0.2,0,0.4,0,0.5c-0.1,0.2,0,0.4,0.3,0.4c0.1,0,0.3,0.1,0.3,0.2c0.2,0.3,0.4,0.6,0.5,0.9
				c-0.4-0.1-0.7-0.1-1.1-0.2c-0.1,0-0.2-0.1-0.3-0.2c-0.1-0.1-0.2-0.2-0.3-0.3c-0.4-0.2-0.6,0.2-0.8,0.4c-0.2-0.1-0.5-0.1-0.7-0.2
				c-0.6-0.1-1.2-0.3-1.7-0.6c-0.3-0.2-0.7-0.4-1.1-0.2c-0.3,0.1-0.1-0.1-0.5-0.2c0.2-0.2-0.1-0.2,0.1-0.4c0.3-0.3,0.7-0.6,1-0.9
				c0.2-0.2,0.1-0.6,0.2-0.8c0.3-0.2,0.6-0.4,0.9-0.5c0.8-0.3,1.6-0.5,2.4-0.8c0.9-0.4,1.8-0.2,2.7-0.4c0.1,0,0.2,0,0.2,0
				c0.2,0,0.5,0,0.7,0c0.8-0.1,1.6-0.3,2.4-0.5c0.3-0.1,0.6,0,0.7,0.4c0.1,0.1,0.2,0.1,0.3,0.2c0.3,0.3,0.5,0.3,0.6-0.1
				c0.1-0.2,0-0.4,0.1-0.6c0.5,0,1.1,0,1.6-0.1c0.7-0.1,1.4-0.2,2-0.3c0.5-0.1,1-0.2,1.5-0.3c-0.2,0.1-0.3,0.2-0.4,0.3
				c-0.2,0.2-0.4,0.3-0.5,0.5c-0.3,0.5-0.1,1,0,1.5c0,0,0.1,0,0.1,0c0-0.3,0.1-0.5,0.1-0.8c0.7,0.3,0.9-0.4,1.4-0.5
				c0.1,0.4,0,1,0.1,1.4c0.1,0.5,0.4,0.8,0.9,0.9c0.1,0,0.2,0.1,0.3,0.2c0.1,0.1,0.3,0.3,0.4,0.3c0.2,0,0.6-0.2,0.7-0.3
				c0.2,0.4,0.1,1.3,0.5,1.5c0.6,0.4,0.6,0.8,0.9,1.3c-0.5-0.2-0.6-0.7-0.8-1.2c0.1,0.4,0.1,0.8,0.3,1.2c0,0.1,0.2,0.2,0.3,0.2
				c0.5,0.1,1.1,0.2,1.6,0.3c0.2,0,0.3,0,0.6-0.1c0.1-0.1,0.1-0.2,0.1-0.3c0-0.3-0.1-0.6,0-0.9c0-0.3,0.2-0.6,0.3-0.8
				c0.1-0.2,0.1-0.5,0.2-0.7c0.2,0.3,0.4,0.6,0.6,0.8c0.1,0.1,0.4,0.3,0.5,0.3c0.2-0.1,0.3-0.3,0.4-0.4c0.2-0.6,0.4-1.2,0.6-1.8
				c0.1-0.3,0.3-0.6,0.4-0.9c0.4-0.6,0.6-1.1,0.2-1.8c-0.1-0.2-0.2-0.5-0.1-0.7c0.2-0.4-0.1-0.6-0.3-0.7c0-0.3,0.1-0.6-0.1-0.9
				c-0.3-0.7-0.2-1.3-0.2-2c0-0.3,0.3-0.6-0.1-0.8c0,0,0-0.1,0-0.1c0-0.7-0.3-1-0.9-1.2c-0.4-0.1-0.8-0.2-1.1-0.4
				c-0.3-0.3-0.6-0.5-1-0.4c-0.2-0.6-0.4-1.1-0.6-1.6c0-0.1-0.2-0.3-0.3-0.3c-0.3-0.1-0.5-0.3-0.7-0.4c-0.2-0.1-0.4-0.1-0.5-0.2
				C47,0.3,46.9,0.3,46.7,0C46.1,0,46,0.3,46,0.9c0,0.6-0.5,1.1-0.3,1.6c0.1,0.7,0.2,1.4-0.1,2c-0.1,0.1-0.1,0.3-0.1,0.4
				c0,0.2-0.1,0.3-0.3,0.2c-0.3-0.1-0.5,0-0.7,0.2c-0.3,0.4-0.9,0.9-1,1.4C43.4,7.1,44,7.6,44,7.9c-0.5-0.1-1.1-0.3-1.6,0.1
				c0.4,0,0.7,0.1,1.1,0.1c0.2,0,0.6,0,0.6,0.1c0.1,0.4,0.3,0.3-0.1,0.8c-0.1-0.1-0.2,0-0.4-0.1c-0.4-0.4-0.8-0.2-1.4,0
				c-0.8,0.2-1.6,0.4-2.4,0.5c-0.5,0.1-1-0.1-1.6,0c-0.9,0.1-1.7,0.2-2.6,0.3c0.1-0.3,0.2-0.6,0.3-0.9c0.1-0.4-0.1-0.6-0.3-0.7
				c-0.1-0.1-0.5,0-0.6,0.1c-0.2,0.2-0.3,0.4-0.1,0.7c0.3,0.3,0.2,0.7-0.1,0.8c-0.3,0.1-0.7,0.2-1,0.3c-0.6,0.1-1.2-0.1-1.8,0.1
				c-0.4,0.1-0.8,0.4-1.2,0.4c-0.2,0-0.5,0.1-0.7,0.1c-0.5-0.1-0.9,0-1.3,0.2c-0.7,0.3-2-0.1-2.7,0.2c-0.5,0.3-0.4,0.7-0.6,1.2
				c-0.2,0.4-0.4,1.4-0.7,1.6c-0.2,0.1-0.5,0.3-0.7,0.4c-0.4,0.2-0.7,0.5-1.1,0.6c-0.9,0.2-1.8,0.6-2.7,0.5c-0.4,0-0.8-0.1-1.2-0.1
				c-0.8-0.2-1.7-1.1-2.5-1.3c-0.7-0.2-1.3-0.1-2-0.2c-0.6-0.1-1.3-0.2-1.9-0.3c-0.2,0-0.5,0.1-0.7,0c-0.3-0.1-0.5-0.3-0.9-0.2
				c-0.2,0-0.4,0-0.5-0.1c-0.4-0.4-0.8-0.3-1.4-0.4c-0.2,0-0.9-0.5-1.1-0.6c-0.6-0.4-4.4-0.2-5.1-0.1c-0.8,0-2-0.1-2.8,0.1
				c-0.4,0.1,0,0.9,0.1,1.3c0.4-0.7,3.6-1,4.7-0.5c-0.4,0-0.9,0-1.3,0.1l0,0.1C4,12.9,4.3,13,4.7,13c0.8,0,5-0.1,5.6,0.4
				c0,0-0.1,0.1-0.2,0.1c0.8,0.2,1.5-0.1,1.9,0.8c0,0-0.2-0.1-0.3,0C11,14,10.7,14,9.9,13.7l0,0c-0.6,0.1-4.8,0.4-5.4,0.5
				c-0.1,0-0.3,0.1-0.4,0.1c-0.7-0.1-1.4-0.1-2.2-0.2c0.1-0.1,0.2-0.2,0.3-0.3c-0.2,0-0.4,0-0.6-0.1c-0.3-0.1-0.5-0.2-0.8-0.1
				c-0.3,0.1-0.4,0-0.6-0.2c0-0.1-0.1-0.1-0.2-0.2c0.1,0.6-0.3,0.8,0.2,1c0.1,0,0.3,0.1,0.4,0.2c0.2,0.2,0.8,0.4,0.9,0.1
				c1.1,0.1,1.5,0.1,2.3,0.1c0.5,0,4.6-0.5,5.1-0.6c0.7-0.2,1.4,0.1,2,0.3c0.4,0.1,0.8,0.3,1.2,0.4c0.1,0.1,0.3,0.1,0.4,0.2
				c0.7,0.5,1.4,0.8,2.3,0.9c0.2,0,0.4,0.1,0.5,0.2c0.3,0.3,0.6,0.6,1.2,0.4c0,0.1-0.3,0.2,0,0.3c0.5,0.3,0.6,0.3,0.9,0.8
				c0,0.1,0.1,0.1,0.2,0.2c0.4,0.2,0.5,0.6,0.9,0.8c0.1,0.1,0.2,0.2,0.3,0.3c0.1,0.3,0.7,0.5,0.8,0.8c0.1,0.3,0.5,0.4,0.6,0.7
				c0.2,0.5,0.4,1,0.6,1.5c0.2,0.5,0.6,0.9,0.8,1.4c0.3,0.5,0.5,1.1,0.8,1.7c0.2,0.6,0.7,1.2,0.6,1.8c0,0.2,0.4,0.5,0.4,1
				c-0.3-0.2-0.3,0-0.5-0.3c-0.6-0.5-1.2-0.9-2-1.1c-0.1,0-0.2,0-0.3,0c-0.1-0.1-0.1-0.1-0.2-0.2c-0.5-0.1-1-0.1-1.6-0.3
				c-0.2-0.1-0.7,0.1-1,0.3c-0.7,0.3-0.8,0.7-0.5,1.4c0.2,0.3,0.2,0.7,0.3,1.1c0,0-0.1,0-0.1,0.1c-0.1-0.2-0.3-0.3-0.4-0.5
				c-0.1-0.8-0.7-1.2-1.2-1.7c-0.3-0.3-0.7-0.4-1.1-0.2c-0.3,0.1-0.6,0.3-0.9,0.5c-0.1,0.1-0.3,0.1-0.4,0.1
				c-0.3,0.1-0.6,0.1-0.8,0.1c-0.4,0.1-1.1,0.7-1,1.1c0,0.3,0.1,0.6,0.2,0.8c0.2,0.4,0.5,0.8,0.8,1.1c0.3,0.4,0.7,0.7,1.2,1.2
				c-0.4,0-0.8,0.1-1.2,0.1c-0.4,0-0.7,0.3-0.8,0.7c-0.3,0.6-0.4,1.4-0.4,2.1c0,0.4,0,0.9,0.6,1c0.1,0,0.1,0.1,0.2,0.2
				c0.3,0.5,0.8,0.7,1.3,0.8c0.5,0.1,1,0.1,1.5,0c0.8-0.1,1.7-0.4,2.5-0.7c0.2-0.1,0.3-0.2,0.5-0.3c0.1,0.6,0.2,1.2,0.3,1.7
				c0.1,0.4,0.3,0.7,0.6,1c0.3,0.4,0.7,0.7,1,1.1c0.5,0.6,1.1,1,1.8,1.1c0.4,0.1,0.8,0,1.3,0c0.3,0,0.6-0.2,0.8-0.2
				c0.3,0.1,0.4-0.1,0.4-0.3c0.1-0.6,0.2-1.1,0.2-1.7c0-0.6-0.1-1.2-0.2-1.9c0.2,0.2,0.4,0.4,0.7,0.5c0.3,0.2,0.5,0.6,1,0.4
				c0.1,0,0.3,0,0.4,0.1c0.3,0.2,0.6,0.3,0.9,0.1c0.3-0.1,0.5-0.2,0.8-0.4c-0.1-0.3-0.2-0.6-0.3-0.8c-0.2-0.3-0.2-0.6-0.2-0.9
				c0-0.6-0.1-1.2-0.6-1.6c-0.2-0.2-0.5-0.4-0.5-0.7c-0.1-0.3-0.2-0.5-0.5-0.6c-0.4-0.2-0.2-0.4-0.2-0.8c0-0.2,0.1-0.3-0.2-0.4
				c-0.1,0-0.1-0.2-0.1-0.3c0-0.2,0.1-0.4,0-0.5c-0.3-0.4-0.6-0.7-0.9-1c-0.5-0.5-0.6-0.6-0.3-1c0.3,0.2,0.5,0.5,0.8,0.4
				c0,0,0.1,0,0.1,0.1c0.3,0.3,0.6,0.5,1,0.6c0.4,0.1,0.7,0.2,0.9,0.6c0.1,0.1,0.1,0.3,0.2,0.4c0.1,0.1,0.2,0.1,0.3,0.2
				c0-0.1,0-0.2,0-0.3c-0.1-0.2-0.2-0.5-0.2-0.7c0.1-0.4,0-0.8-0.2-1.1c-0.3-0.5-0.8-0.9-1.4-1.1c-0.5-0.2-1-0.6-1.5-0.2
				c-0.1-0.4-0.1-0.7-0.3-1c-0.2-0.4-0.5-0.8-0.7-1.1c-0.1-0.3-0.3-0.5-0.4-0.8c0.6-0.1,1.1-0.1,1.6-0.1c-0.2-0.2-0.4-0.4-0.5-0.6
				c-0.4-0.6-1-0.8-1.6-0.5c-0.3-0.4-0.6-0.8-1-1.3c0.2-0.2,0.2-0.7-0.1-0.9c0.4,0.3-0.9-1-0.9-1c-0.1-0.3,0-0.6-0.1-0.9
				c-0.1-0.3-0.1-0.6-0.1-1c0-0.6-0.2-0.5,0.5-0.7c0.1,0,0.3-0.1,0.4-0.2c0.3-0.4,0.8-0.4,1.2-0.4c0.5,0,0.8-0.2,1.3-0.2
				c0.3,0,0.4-0.2,0.6-0.3c0.4-0.2,0.7-0.3,1.3-0.2c0,0.1,0,0.2-0.1,0.2c-0.3,0.6-0.5,1.3-0.3,2c0.1,0.2,0,0.4-0.1,0.6
				c-0.1,0.3-0.2,0.7,0.1,1c0.2,0.3,0.4,0.6,0.7,0.9c0.2,0.3,0.5,0.5,0.8,0.7c0.2,0.1,0.4,0.3,0.6,0.2c0.4-0.1,0.8-0.1,0.8,0.4
				c0,0,0.1,0.1,0.2,0.1c0-0.1,0-0.1,0-0.2c0-0.2-0.1-0.4-0.1-0.5c0-0.2,0.1-0.4,0.1-0.6c0.1-0.4,0.2-0.8,0.3-1.2
				c0-0.4,0-0.8-0.1-1.1c0-0.1-0.2-0.2-0.2-0.4c-0.2-0.6-0.4-1.1-0.8-1.5c-0.1-0.1,0-0.1-0.1-0.2c0.1,0,0.2,0.1,0.3,0.1
				c0.7,0.3,0.9,0.6,1.5,0.8c0.5,0.2,0.8,0.8,1.1,1.1l0.7,0.1c0.1,0.2,0.2,0,0.3,0.1c0.3,0.3,0.6,0.7,0.8,1c0.3,0.3,0.7,0.6,0.8,1.1
				c0,0.2,0.3,0.3,0.5,0.4c0.1,0.1,0.3,0.2,0.3,0.2c-0.2,0.4,0.2,0.6,0.3,0.9c0.1,0.3,0.3,0.5,0.6,0.6c-0.1,0.1-0.1,0.1-0.2,0.2
				c-0.2-0.2-0.5-0.4-0.7-0.7c-0.3-0.6-0.8-1-1.4-1.2c-0.4-0.2-0.7-0.5-0.9-1c0.3,0.1,0.5,0.2,0.7,0.3c0.4,0.2,0.5,0.2,0.6,0.1
				c-0.6-0.3-1.1-0.6-1.7-0.9c0.1-0.7-0.1-1-0.8-1.1c0.2,0.2,0.3,0.4,0.4,0.7c0.2,0.4,0.3,0.9,0.6,1.3c0.3,0.6,0.8,1.1,1.4,1.3
				c0.1,0,0.2,0.1,0.3,0.2c0.3,0.3,0.5,0.7,0.8,0.9c0.2,0.2,0.2,0.5,0.1,0.7c-0.1,0.3-0.4,0.5-0.6,0.8c-0.4,0.6-0.7,1.2-0.4,1.9
				c0.2,0.8,0.5,1.5,0.8,2.3c0,0.1,0.3,0.2,0.3,0.2c0.3-0.2,0.5-0.7,0.5-1.1c0-0.4,0-0.8,0-1.2c0.1-0.4,0-0.7-0.2-1
				c-0.1-0.2-0.2-0.4-0.2-0.6c0-0.3,0.1-0.6,0.2-0.9c0.1,0.1,0.2,0.2,0.2,0.3c0,0.2-0.1,0.4-0.1,0.6c-0.1,0.5,0.2,0.9,0.8,0.7
				c-0.4-0.3-0.7-0.6-0.4-1.1c0.2,0.2,0.4,0.4,0.6,0.6c0.2,0.2,0.4,0.5,0.6,0.8c0.3,0.4,0.6,0.9,0.8,1.3c0.3,0.5,0.5,1,0.9,1.5
				c0.4,0.5,0.3,1.1,0.7,1.5c0,0,0,0.1,0,0.1c0,0.3,0,0.7,0,1c-0.1,0-0.2,0-0.3,0c-0.5-0.3-1-0.3-1.6-0.2c-0.6,0.1-1.2,0.2-1.7,0.6
				c-0.6,0.5-0.8,0.8-0.6,1.6c0.1,0.3,0,0.6-0.1,0.9c-0.2,0.5-0.5,0.9-0.7,1.3c-0.4,0.9-0.2,1.6,0.7,2.1c0.4,0.2,0.8,0.4,1.2,0.6
				c0.5,0.3,0.9,0.6,1.4,1c-0.2,0.2-0.5,0.5-0.3,1c0.3,1.1,1.1,1.7,2,2.2c0.4,0.2,0.9,0.4,1.1,0.8c0.2,0.3,0.4,0.5,0.7,0.5
				c0.4,0,0.8,0.1,1.2,0.1c0.1,0,0.3-0.1,0.4-0.2c0.2-0.2,0.5-0.4,0.7-0.5c0.4-0.1,0.7-0.4,0.9-0.7c0.1-0.2,0.2-0.3,0.4-0.1
				c0.1,0.1,0.2,0.1,0.3,0.2c0.4,0.2,0.8,0.3,1.2,0.5c0,0,0.1,0.1,0.1,0.1c0.3,0.1,0.6,0.2,0.9,0.2c0.3,0,0.6,0.1,0.9,0
				c0.2-0.1,0.4-0.3,0.7-0.5c0,0.1,0,0.1,0.1,0.2c0.1,0,0.1,0,0.2-0.1c0.1-0.2,0.2-0.4,0.3-0.6c0.2-0.3,0.2-0.6,0.6-0.7
				c0.3-0.1,0.6-0.1,0.8-0.3c0.6-0.4,1-1.1,1.1-1.8c0.2-1,0.1-1.9-0.7-2.7C51.3,36.6,51.4,36.3,51.8,36.2z M24.9,30.2
				c0.1,0.1,0.1,0.2,0.2,0.4c-0.4,0.1-0.8,0-1.1-0.1c-0.4-0.1-0.8-0.4-1.3-0.5c-0.2-0.1-0.4-0.1-0.6-0.1c-0.5-0.1-0.9-0.5-1.2-0.9
				c-0.4-0.4-0.7-0.9-1.1-1.4c-0.2-0.3-0.5-0.4-0.9-0.4c0.2,0.2,0.4,0.3,0.6,0.5c0,0,0,0,0,0c-0.2-0.1-0.3-0.1-0.5-0.2
				c0,0.4,0.3,0.4,0.5,0.5c0,0,0.1-0.1,0.2-0.2c0.3,0.7,0.7,1.2,1.4,1.6c0.1,0,0.1,0.1,0.1,0.1c0.2,0.4,0.5,0.5,0.9,0.6
				c0.7,0.2,1.5,0.5,2.2,0.7c0.2,0.1,0.5,0,0.9,0.1c-0.1,0.1-0.2,0.3-0.3,0.4c-0.3,0.4-0.8,0.4-1.2,0.5c-0.1,0-0.2,0.1-0.3,0.2
				c0,0,0,0.1,0,0.1c0.4-0.1,0.7,0.3,1,0.2c0.1,0,0.1,0,0.2,0c0.4,0.2,0.8,0.4,1.2,0.6c0.2,0.1,0.4,0.1,0.5,0.3
				c0.1,0.1,0.2,0.3,0.3,0.4c0.1,0.1,0.1,0.2,0.1,0.4c0.1,0.5,0.1,0.9,0.2,1.4c0,0.1,0.2,0.2,0.3,0.4l-0.4-1.7
				c0.3,0.3,0.4,0.7,0.4,1.1c0.1,0.6,0.2,1.1,0.5,1.5c0,0,0,0.1,0,0.2c-0.7,0.3-1.2,0-1.9-0.2c-0.3-0.1-0.6-0.4-1-0.6
				c-0.1-0.1-0.3,0.1-0.4,0c-0.4-0.1-0.5-0.6-0.8-0.8c-0.1-0.1-0.1-0.1-0.3-0.2c0,0.1,0.1,0.2,0.1,0.2c0.4,0.7,0.1,1.4,0.1,2.2
				c0,0.4,0.4,0.8,0.3,1.2c0,0.3,0,0.6,0,0.9c-0.5,0.1-0.9,0.1-1.4,0.1c-0.4,0-0.4-0.2-0.8-0.5c-0.7-0.4-1.3-0.9-1.8-1.6
				c-0.2-0.2-0.6,0-0.7-0.3c-0.4-0.5-0.5-0.8-0.5-1.4c0-0.6,0.1-0.9,0.4-1.4c0.2-0.4,0.2-0.9,0.4-1.4c0,0-0.1,0-0.1-0.1
				c-0.1,0.2-0.3,0.4-0.3,0.6c-0.1,0.5-0.5,0.7-0.8,0.9c-0.2,0.2-0.5,0.2-0.7,0.4c-0.3,0.4-0.8,0.3-1.2,0.4c-0.5,0-0.9-0.1-1.4-0.1
				c-0.5,0-1,0.3-1.5,0.2c-0.2,0-0.4-0.2-0.6-0.3c-0.2-0.2-0.1-0.5-0.3-0.6c-0.4-0.2-0.3-0.4-0.3-0.7c0-0.5-0.2-0.7-0.1-1.2
				c0.2-0.6,0.4-0.9,1.2-0.9c0.4,0,0.7-0.5,1-0.5c0.3,0,0.6,0.1,1,0.1c0.2,0,0.3,0,0.5,0c0,0,0-0.1,0-0.1c-0.2-0.1-0.3-0.6-0.5-0.6
				c-0.5,0-1.1,0-1.4-0.3c-0.5-0.4-0.6-0.8-1.1-1.2c-0.4-0.5-0.6-1.4-0.2-1.9c0.1-0.1,0.3-0.2,0.5-0.1c0.5,0.1,0.8,0.1,1.2-0.3
				c0.1-0.1,0.5-0.1,0.7-0.1c0.1,0,0.3,0,0.4,0c0.2-0.1,0.4,0,0.6,0.1c0.5,0.4,0.8,0.8,0.9,1.4c0.1,0.3,0.2,0.5,0.5,0.5
				c0.3,0.1,0.4,0.2,0.3,0.9c-0.2-0.3-0.3-0.5-0.5-0.7c-0.2,0.1-0.3-0.1-0.4-0.3c-0.5-0.7-1.3-1.5-2.1-1.8c-0.1,0-0.2,0-0.3,0
				c0.3,0.2,0.8,0.6,1.1,0.9c0.4,0.4,0.8,0.8,1.2,1.2c0.2,0.2,0.5,0.5,0.8,0.7c0.1,0.1,0.2,0.1,0.3,0.2c0,0.1,0,0.2,0,0.4
				c-0.5-0.2-0.9-0.4-1.3-0.5c0,0,0,0.1-0.1,0.1c0.4,0.2,0.8,0.8,1.2,1.1c0,0,0.1-0.4,0.1-0.4c0,0.1-0.1,0.3-0.1,0.5
				c-0.3-0.1-0.6-0.1-0.9-0.2c0,0,0,0,0,0.1c0.5,0.3,1,0.5,1.5,0.8c-0.2,0.1-0.3,0.3-0.4,0.3c-0.2,0.1-0.3,0.3-0.6,0.2
				c-0.2-0.1-0.5,0-0.6,0.3l0.8-0.2c-0.2,0.3-1,1.2-1.1,1.4c0,0,0,0,0.1,0c0.5-0.4,1.7-1.6,2.3-2c-0.3-0.2-0.6-0.4-0.8-0.7
				c0-0.1,0.1-0.3,0.1-0.4c0.3-0.6,0.2-1.2-0.1-1.9c-0.1-0.1,0-0.3,0-0.5c0-0.2-0.1-0.4-0.1-0.6c-0.1-0.2-0.2-0.3-0.3-0.6
				c0.4-0.1,0.7-0.2,1.1-0.4c-0.1-0.2-0.3-0.2-0.5-0.1c-0.2,0.1-0.4,0.2-0.6,0.3c0-0.3,0.2-0.5,0.4-0.6c0.5-0.2,1,0.3,1.6,0.4
				c0.4,0,0.8,0.1,1.2,0.1c0.1,0.4,0.4,0.4,0.7,0.4c0.5,0.1,0.9-0.1,1.2,0.3c0.1,0.1,0.2,0.2,0.3,0.3c0.5,0.1,0.5,0.8,0.7,1.2
				C24,29.6,24.5,29.7,24.9,30.2z M24.4,27.3c0.6-0.5,1.1,0,1.6,0.2c0.5,0.2,0.9,0.6,1.2,1.2c-0.6-0.6-1.3-1-2-1.2
				c0.8,0.6,1.7,1,2.1,2c-0.7-0.4-1.3-1.2-2-1.6c-0.4,0.4-0.3-0.1-0.5-0.2C24.7,27.4,24.5,27.5,24.4,27.3z M24.1,23.7
				c-0.4,0-0.8,0-1.2,0c-0.1-0.2-0.1-0.3-0.3-0.5C23.3,23.2,23.7,23.2,24.1,23.7z M21.2,20.9c0.5,0.1,0.3,0.3,0.3,0.6
				c-0.2-0.2,0.1-0.2-0.1-0.3C21.4,21.2,21.1,21.1,21.2,20.9z M37.7,11C37.7,11,37.7,11.1,37.7,11c-0.3-0.1-0.4,0-0.7-0.3
				c0.3,0,0.5,0,0.8-0.1C37.9,10.9,37.8,10.8,37.7,11z M46.3,13.1c-0.2,0.1-0.5,0.2-0.7-0.1c0.3-0.1,0.5-0.5,1-0.5
				C46.5,12.8,46.5,13,46.3,13.1z M45.9,4.3c0.1,0.1,0.2,0.2,0.2,0.3c-0.3,0.1-0.2,0.4-0.4,0.5c0,0,0,0.1-0.1,0.2
				C45.6,4.9,45.8,4.7,45.9,4.3z M46.2,4.6c0.1,0.1,0.3,0.2,0.3,0.4c0,0.2,0,0.4-0.1,0.6c-0.1,0.1-0.3,0.2-0.5,0.3
				C46,5.4,46.1,5,46.2,4.6z M44.8,11.3c0-0.1,0-0.3,0-0.4c-0.1-0.4-0.3-0.8-0.4-1.2c0,0,0-0.1,0-0.2c0.4-0.5,0.2-0.7,0.1-1
				c-0.1-0.4-0.1-0.9-0.2-1.4c-0.1-0.7,0.3-0.7,0.8-0.6c0.3,0.1,0.5,0.1,0.8,0.2c0,0,0-0.1,0-0.1c-0.5-0.1-1-0.3-1.5-0.4
				c0-0.2,0.1-0.4,0.4-0.6c0.1-0.1,0.8,0.2,0.9,0.4c0.2,0.4,0.5,0.6,0.7,1c0.1,0.1,0.1,0.3,0.2,0.5c0.1,0.1,0.2,0.3,0.2,0.4
				C47.1,7.9,47.3,8,47.5,8c0,0,0-0.1,0.1-0.1c-0.3-0.2-0.8-0.3-0.7-0.8c0.3-0.1,0.4-0.3,0.4-0.5c0-0.2-0.2-0.5-0.3-0.7
				c0,0.4,0,0.7,0,1.1c-0.1-0.1-0.1-0.1-0.1-0.1c-0.4-0.4-0.2-0.7,0-1c0.3-0.5,0.2-1-0.4-1.4c-0.2-0.2-0.2-0.3-0.2-0.5
				c0-0.3-0.2-0.5-0.1-0.8c0-0.5,0.1-1,0.2-1.5c0.1-0.3,0.2-0.7,0.4-1c0-0.1,0.1-0.1,0.2-0.1c0,0,0.1,0.1,0.1,0.1
				c0.3,0.3,0,0.5-0.1,0.8c0,0.6,0.1,1.9,0.1,2.5c0,0.2,0.1,0.3,0.2,0.5c-0.1-1.1,0-2.3,0.2-3.4c0.1,0.2,0.4,0,0.5,0.1
				c-0.1,0-0.3,0-0.4,0.1c0,0,0,0.1,0,0.1c0.2,0,0.4,0.1,0.5,0c0.4-0.1,0.4,0.2,0.5,0.6c0.1,0.4,0.2,0.8,0.4,1.2
				c0.1,0.4,0.4,0.4,0.6,0.7c0.2,0.4,0,0.7-0.1,1.1c-0.1,0.3-0.2,0.7-0.3,1c-0.1,0.3-0.3,0.7-0.5,1c0.2,0.1,0.3-0.1,0.4-0.2
				c0.3-0.8,0.6-1.5,0.9-2.3c0.1-0.2-0.1-0.4-0.2-0.6c0-0.2-0.1,0,0-0.2c0.1-0.2,0.3,0,0.4,0.1c0.3,0.3,0.6,0.4,1,0.5
				C51.6,4.3,51.8,4.4,52,5c0.2,0.5,0.1,1,0,1.5c0,0.2,0,0.4,0,0.6c0,0.4,0.1,0.9,0.1,1.3c0,0.1,0,0.3-0.1,0.3
				c-0.3,0.3-0.6,0.7-1.1,0.5c-0.2-0.1-0.5,0-0.8,0c-0.1,0-0.1,0.1-0.2,0.1c0.8,0.3,1.6,0.5,2.1-0.1c0.3,0.2,0.7,0.2,0.7,0.6
				c-0.5,0.2-0.7-0.2-1-0.4c0.1,0.4,0.6,0.7,1.1,0.7c0.1,0.4,0,0.8-0.3,1.1c-0.3,0.5-0.6,0.9-0.5,1.5c0,0.1-0.1,0.2-0.2,0.3
				c-0.1,0.3-0.2,0.2-0.3,0.5c0,0.1,0,0.1-0.1,0.1c-0.2,0-0.4,0.4-0.6,0.4c0,0-0.1,0-0.1,0c-0.2-0.3-0.2-0.7-0.3-1
				c-0.2-0.7-0.6-1.3-0.9-2.1c-0.1,0.2-0.1,0.3-0.1,0.3c0.1,0.4,0.3,0.7,0.3,1.1c0.1,0.6,0.4,1,0.1,1.6c-0.1,0.3-0.2,0.6-0.3,0.9
				c-0.2,0-0.5,0-0.7-0.1c0,0,0,0.1,0,0.1c0.2,0.1,0.4,0.2,0.7,0.3c0,0.3-0.2,0.5-0.3,0.8c-0.3,0.2-0.5,0.1-0.8,0
				c-0.4,0-0.5-0.2-0.5-0.6c0-0.7-0.1-1.4-0.2-2.1c0-0.2-0.2-0.4-0.3-0.6c0.1,0.6,0.4,1.2,0,1.9c-0.2-0.4-0.5-0.8-0.6-1.2
				c-0.2-0.6-0.1-1.2,0.1-1.8c0.2-0.6,0.2-1.2,0.3-1.7c0-0.3,0.1-0.5,0.1-0.8c0-0.1,0-0.2,0-0.3c0,0-0.1,0-0.1,0
				c-0.1,0.2-0.1,0.3-0.2,0.6c-0.3-0.2-0.6-0.4-1-0.6c0,0-0.1,0.1,0,0.2c0.2,0.4,0.6,0.5,1,0.6c0,0.1,0,0.2,0,0.4
				c-0.1,0-0.2,0-0.4,0c0,0,0,0.1,0,0.1c0.1,0,0.3,0,0.5,0.1c0,0.2,0,0.4-0.1,0.5c-0.1,0.5-0.3,0.9-0.5,1.4c0,0.1,0,0.2-0.1,0.2
				c-0.3,0.1-0.7,0.1-1.1,0.2c-0.3,0.1-0.5-0.2-0.6-0.5C44.9,11.7,44.9,11.6,44.8,11.3z M44,9.8c0,0.3,0,0.6,0,0.9
				c0,0.1-0.1,0.1-0.2,0.1c-0.4,0.3-0.5,0.3-1,0.3c0.2-0.5,0.3-0.5,0.6-0.8c0.1-0.1,0.2-0.3,0.4-0.4l0,0.1C43.9,10,44,9.8,44,9.8z
				 M16.7,16.6c-0.1-0.1,0-0.2-0.2-0.1c-0.3,0.1-0.3,0-0.4-0.1c-0.1-0.1-0.3-0.2-0.4-0.3c0.1,0,0.3,0,0.4,0c0.4,0.1,0.8,0.2,1.3,0.2
				c0,0,0,0.1,0.1,0.1c-0.1,0.2-0.2,0.3-0.3,0.4C17,16.7,16.9,16.6,16.7,16.6z M23.8,16c-0.5,0.1-0.9,0.2-1.4,0.2
				c0.3-0.2,0.6-0.4,0.8-0.6c-0.3-0.1-1.1,0.3-1.2,0.6c-0.1-0.1-0.3,0.1-0.5-0.1c-0.1-0.2,0-0.2,0-0.2c0.3-0.1,0.6-0.2,0.9-0.3
				c0.1,0,0.2-0.1,0.3-0.2c-0.6,0.1-1.2,0.1-1.8,0.5c0.1,0.2,0.2,0.3,0.4,0.5c-0.5,0.2-1,0.4-1.4,0.6c-0.3,0.1-0.3,0.5-0.3,0.7
				c0,0.3,0,0.6,0.1,0.9c0,0-0.1,0.1-0.1,0.1c-0.4-0.3-0.9-0.5-1.3-0.8c-0.3-0.2-0.5-0.5-0.8-0.7c-0.1-0.1-0.3-0.1-0.4-0.2l0,0
				c0.1-0.1,0.2-0.1,0.3-0.2c0.4-0.2,0.6-0.1,0.9,0.2c0.2,0.3,0.5,0.5,0.8,0.7c-0.1-0.5-0.4-0.9-0.9-1.1c-0.8-0.4-1.6-0.7-2.5-0.7
				c-1-0.1-1.9-0.4-2.8-0.9c-0.4-0.2-0.4-0.6-0.7-0.8c0,0,0-0.1,0.1-0.1c0.6,0.1,1.2,0.1,1.7,0.2c0.7,0.1,1,0.4,1.6,0.6
				c0.5,0.1,0.9,0.3,1.3,0.4c0.9,0.3,2.1,0.6,3,0.6c0.8,0,1.6,0,2.3-0.4c0.3-0.2,0.7-0.3,0.9-0.3c0.2,0.1,0.3,0.1,0.3,0.1
				c0.4-0.4,0.8-0.7,1.3-1c0.5-0.2,1-0.6,1.2-1.3c0.1-0.2,0.4-0.4,0.7-0.6c0.3-0.2,0.6-0.2,0.9-0.4c0.1,0,0.1-0.1,0.2-0.1
				c0.7-0.2,1.5-0.7,2.2-0.7c1.3-0.1,1.7-0.4,2.5-0.5c0.5-0.1,1-0.1,1.5-0.2c0.4-0.1,0.9-0.1,1-0.6c0-0.1,0,0,0-0.1
				c0-0.2-0.1-0.5-0.1-0.7c0,0,0.1-0.2,0.1-0.2c0,0.1,0,0.1,0,0.1c0,0.3,0,0.5,0,0.8l0.1,0c0-0.3,0.2-0.3,0.2-0.5
				c0.3,0.4-0.4,0.7-0.4,1.2c0.3,0,0.6,0,0.9,0c0.5,0,1.2-0.3,1.8-0.3c0.8,0,1.7,0.1,2.5-0.1c0.5-0.1,1-0.1,1.4-0.2
				c0.3-0.1,0.6-0.2,0.9-0.3c0.2-0.1,0.4-0.1,0.6,0.1c0.2,0.2-0.4,0.1-0.2,0.2c-0.4,0.3-0.5,0.2-0.9,0.2c-0.6,0-0.8,0.3-1.4,0.4
				c-0.5,0.1-0.9,0-1.4,0.1c-0.3,0-0.6,0-0.9,0.1c-0.1,0-0.1,0.1-0.2,0.1c-0.3,0-0.5,0-0.8,0c-0.5,0-1.1,0.1-1.6,0.1
				c-0.5,0-0.8,0.1-1.3,0.2c-0.2,0-0.4,0.1-0.7,0.1c-0.5,0.1-1.1,0-1.6,0.1c-0.6,0.1-1,0.3-1.6,0.4c-0.5,0.1-1.1,0.1-1.6,0.3
				c-0.1,0-0.1,0.1-0.2,0.1c-0.5,0.2-1,0.6-1.4,0.8c-0.2,0.1-0.1-0.3-0.3-0.1c0-0.2-0.3,0.2-0.3,0c0,0-0.1,0-0.1,0
				c0,0.3-0.1,0.5-0.1,0.8l0.1,0c-0.1,0.1-0.3,0.1-0.3,0.2c-0.1,0.1-0.2,0.3-0.2,0.4c0,0.3-0.1,0.4-0.3,0.6
				c-0.5,0.3-0.9,0.7-0.8,1.2C24.8,15.7,24.3,15.9,23.8,16z M28,17.6c0.3,0.7,0.4,1.4,0.3,2.1c-0.4-0.7-0.8-1.4-1.1-2.1
				c0,0-0.1,0-0.1,0c0.2,0.4,0.3,0.8,0.5,1.2c0.2,0.5,0.4,1,0.6,1.5c0.1,0.2,0,0.4-0.1,0.6c0,0.1-0.1,0.1-0.2,0.1
				c-0.1,0-0.2-0.1-0.2-0.1c0-0.1,0-0.3,0-0.4c-0.1-0.4-0.1-0.8-0.2-1.3l-0.1,0c0,0.5,0.1,1,0.1,1.4c-0.5,0.1-0.8-0.2-1.1-0.5
				c-0.2-0.2-0.5-0.5-0.6-0.8c-0.1-0.2-0.1-0.5-0.1-0.8c0-0.3,0.1-0.6,0-0.8c-0.2-0.7,0-0.9,0.3-1.5c0.1-0.1,0.2-0.2,0.2-0.3
				c0.5,0.2,0.6,0,0.5,0.5c0,0.1,0.1,0.3,0.1,0.4c0,0.2,0,0.5,0,0.7c0,0.2,0,0.3,0,0.5c0,0.2,0,0.3,0,0.5c0,0,0.1,0,0.1,0
				c0-0.3,0.1-0.6,0.1-0.9c0-0.3,0-0.6,0-0.9c0-0.3,0.3,0.2,0.2-0.2C27.7,17.2,27.7,16.9,28,17.6z M32.8,14.2c0-0.4,0-0.4,0-0.8
				c0.1,0.2,0.2,0,0.3,0.2c0.3,0.7,0.5,1.4,0.8,2.1c0,0.1,0.1,0.2,0.1,0.3c0,0,0.1,0,0.1,0c-0.4-0.9,0.4-1.2,0.7-1.9
				c0.1-0.2,0.3-0.3,0.5-0.4c0.5-0.1,0.9-0.5,1.4-0.6c0.3,0,0.6,0,0.9,0c0.4,0.1,0.5,0.3,0.8,0.4c0.4,0.3,0.5,0.7,0.2,1.1
				c-0.3,0.4-0.5,0.8-0.9,1.2c-0.4,0.4-0.8,0.7-1.3,0.9c-0.3,0.1-0.6,0.1-0.9,0c-0.4-0.2-0.8-0.4-1.3-0.5c-0.2,0-0.4,0.1-0.6,0.2
				c0,0,0,0.1,0,0.1c0.1,0,0.3-0.1,0.4-0.1c0.2,0,0.3,0.1,0.5,0.2l0,0c0.4,0,0.7,0.2,1,0.4c0.1,0.1,0.2,0.1,0.3,0.1
				c0.4-0.1,0.9-0.1,1.3-0.5c0.4-0.4,0.6-0.4,1.1-0.8c0.1,0,0.2-0.1,0.2,0c0.1,0.1,0.5-0.2,0.6-0.1c0.3,0.3,0.8,0.5,0.6,0.9
				c-0.2,0.5-0.6,0.9-0.9,1.3c-0.4,0.5-1,0.5-1.5,0.7c-0.2,0.1-0.5-0.1-0.8-0.1c-0.1,0-0.2,0-0.3,0.1c-0.1-0.1-0.3-0.2-0.4-0.3
				c0,0-0.1,0.1-0.1,0.1c0.2,0.2,0.4,0.5,0.7,0.7c0.4,0.2,0.8,0,1-0.2c0.2-0.2,0.4-0.1,0.5-0.1c0,0.4,0,0.7,0.1,1.1
				c-0.3,0.2-0.5,0.5-1,0.4c-0.2-0.1-0.5,0.1-0.7,0c-0.6-0.1-1-0.6-1.3-1.1c-0.2-0.3-0.5-0.7-0.6-1.1c-0.1-0.1,0-0.3,0-0.5
				c0-0.2-0.1-0.4-0.2-0.5c-0.1,0.5,0,1.1-0.7,1.4c0-0.5-0.1-0.9-0.1-1.4c0-0.4,0-0.8,0.1-1.2c0-0.1,0-0.1,0-0.2
				C32.7,15.2,32.8,14.7,32.8,14.2z M30.1,17.4c-0.2-0.1-0.5-0.3-0.7-0.4c-0.4-0.2,0.2-0.2-0.2-0.5c1.4,0.2,2,0.2,3.5,0.4
				c-0.2-0.5-0.4-0.8-0.6-1.2c0.6-0.2,0.8,0,0.8,0.7c0,0.3,0,0.5,0,0.8C32,17,31.2,16.7,30.3,17c0.3,0.4,0.5,0.6,0.7,1
				C30.5,18,30.4,17.6,30.1,17.4z M34,21.5c0.4,0,0.9,0.9,0.8,1.4C34.5,22.4,34.3,21.9,34,21.5z M34.3,24.6
				c-0.2,0.7-0.1,1.3,0.1,1.9c0,0.2,0,0.4,0,0.6c0,0.2,0.1,0.3,0.1,0.5c0.1,0.5,0.1,0.5-0.2,0.9c-0.2-0.6-0.3-1.2-0.6-1.8
				c-0.3-0.9-0.2-1.3,0.3-1.9c0.1-0.1,0.1-0.3,0.1-0.4c0,0,0.1,0,0.1,0C34.3,24.5,34.4,24.4,34.3,24.6z M38.4,28.9
				c-0.4-0.7-0.8-1.4-1.2-2.1c0,0,0.1,0,0.1,0C37.8,27.4,38.5,27.9,38.4,28.9z M39.3,29.6c0-0.2,0-0.4,0-0.6
				c0.2,0.1,0.5,0.2,0.8,0.3c-0.2,0.4-0.4,0.7-0.5,1.1c0,0-0.1,0-0.1,0C39.4,30,39.4,29.8,39.3,29.6z M39.1,29.4
				c0,0.2,0.1,0.4,0.1,0.6C38.7,29.7,38.7,29.6,39.1,29.4z M39.2,31.1c0-0.1,0-0.2-0.1-0.3c0-0.1-0.1-0.2-0.1-0.3
				c0.5,0,0.6,0.1,0.6,0.5c0,0.3,0.1,0.5,0.1,0.8c0,0-0.1,0-0.1,0c0,0-0.1-0.1-0.1-0.1C39.1,31.6,39.1,31.6,39.2,31.1z M43.4,40.5
				c0,0.4,0.3,0.7,0.4,1.1c0.1,0.2,0.1,0.3,0,0.4c-0.4,0.3-0.5,0.8-1,1c-0.1,0.1-0.2,0.2-0.3,0.2c-0.3,0.1-0.5,0.2-0.8,0.2
				c-0.7,0.1-1-0.5-1.4-1.1c-0.2-0.3-0.6-0.4-0.9-0.6c-0.7-0.3-1.2-0.5-1.6-1.2c-0.6-0.8-0.5-1.3,0.2-1.7l0,0c0.5-0.4,1-0.8,1.5-1.2
				c0.3-0.2,0.6-0.4,0.9-0.6c0.5-0.3,0.9-0.6,1.4-0.9c0.2-0.1,1-0.2,1,0c0.1,0.2,0,0.4-0.1,0.6c-0.1,0.2-0.3,0.2-0.4,0.4
				c-0.1,0.1-0.2,1-0.3,1.1c0,0,0.1,0.1,0.1,0.1c0.2-0.2,0.5-1.2,0.8-1.4c0,0.4,0,1.5,0,1.8c0,0,0.1,0,0.1,0c0-0.1,0.1-0.2,0.1-0.3
				c0-0.5,0.1-1.8-0.1-2.3c0-0.1,0-0.2,0.1-0.3c0.2-0.2,0.4-0.3,0.6-0.5c0.1,0.2,0.3,0.4,0.3,0.6c0,1,0.3,2.1-0.2,3.1
				C43.4,39.6,43.4,40.1,43.4,40.5z M51.1,37.7c0.3,0.8,0.1,1.5-0.3,2.3c-0.2,0.4-0.8,0.5-1.3,0.6c-0.5,0.2-0.5,0.9-0.6,1.4
				c-0.1,0.3-0.2,0.3-0.4,0.3c-0.1,0-0.2,0-0.3,0c-0.6,0.3-1.3-0.1-1.9-0.2c-0.2,0-0.6-0.2-0.9-0.3l0.2,0.4c0.8,0.2,1.6,0.4,2.4,0.6
				c0,0,0,0,0,0c-0.4,0-0.7-0.3-1.2-0.3c-0.2,0-0.6-0.1-0.9-0.1c-0.3-0.2-0.4-0.3-0.7-0.5c-0.8-0.4-1.2-1.6-1.1-2.4
				c0.1-0.7,0.1-1.2,0.2-1.9c0-0.1,0-0.3-0.1-0.4c-0.3-0.3-0.2-0.6-0.2-0.9c0.3,0,0.3,0.3,0.4,0.5c0.1,0.2,0.5,1.1,0.6,1.3
				c0.1,0.1,0.2,0.1,0.3,0.2c-0.2-0.4-0.5-1.4-0.7-1.7c0.3,0.1,0.5,0.3,0.7,0.4l0.1-0.1c-0.1-0.1-0.2-0.2-0.4-0.3
				c-0.6-0.2-1.2-0.3-1.4-1c0.1-0.2,0.3-0.4,0.4-0.5c0,0-0.1-0.1-0.1-0.1c-0.1,0.1-0.2,0.1-0.2,0.2c-0.1-0.3-0.2-0.6-0.3-0.8
				c-0.1-0.2-0.1-0.4,0.1-0.5c0.4-0.2,0.8-0.6,1.2-0.8c0.8-0.4,0.8-0.8,0.9-0.9c-0.3,0.1-1.3,0.9-1.5,1c0.1-0.3,0.8-1.2,0.9-1.5
				c-0.1,0-0.1,0-0.2-0.1c-0.3,0.5-1.2,1.6-1.5,2.1c0,0-0.1,0-0.1,0c0-0.2-0.1-0.5-0.1-0.7c0,0,0,0-0.1,0c0,0.2,0,0.4,0,0.5
				c0,0.1-0.2,0.2-0.2,0.3c0.1,0.3,0.2,0.5,0.3,0.8c0.2,0.4,0.1,0.7-0.4,0.8c0,0-0.1,0-0.2-0.1c0,0.2-0.1,0.4-0.1,0.5
				c-0.3-0.3-0.5-0.7-0.9-1c-0.3-0.2-1.5-0.5-1.9-0.7c0,0,0-0.1,0-0.1c0.3,0,0.6,0,0.8-0.1c0,0,0,0,0-0.1c-0.2,0-0.5-0.1-0.7-0.1
				c-0.1,0-0.3,0.1-0.3,0.2c0,0.1,0.1,0.3,0.2,0.4c0.2,0.1,1.2,0.5,1.4,0.5c0.5,0.1,0.7,0.5,0.9,0.7c-0.5,0.3-1,0.6-1.5,0.9
				c-0.3,0.2-0.6,0.2-0.9,0.4c-0.2,0.1-0.4,0.1-0.6,0.3c-0.4,0.3-0.8,0.4-1.2,0.7c-0.2,0.1-0.4,0.3-0.6,0.3c-0.3,0-0.5,0.2-0.8,0
				c-0.7-0.4-0.9-0.6-1.6-1c-0.2-0.2-0.5-0.4-0.6-0.6c-0.1-0.2,0-0.5,0-0.7c0.1-0.5,0.3-1,0.6-1.4c0.2-0.3,0.7-0.5,0.7-0.9
				c0-0.1,0-0.1,0-0.2c0-0.3-0.2-0.6-0.1-0.8c0.2-0.3,0.5-0.6,0.8-0.9c0.9-0.6,0.9-0.5,1.9-0.2c0.9,0.3,1.7,0.4,2.2,1.2
				c0.3,0.4,0.7,0.8,1,1.2c0.2,0.2,0.2,0.5,0.4,0.7c0.1-0.6,0-1-0.3-1.4c-0.3-0.4-0.6-0.8-0.9-1.2c-0.2-0.2-0.4-0.5-0.5-0.7
				c-0.1-0.4,0-0.7-0.1-1c0-0.1,0.1-0.3,0.2-0.3c0.5-0.4,0-0.7,0.2-1.1c0.1-0.2,0.3-0.3,0.5-0.5c0.7-0.5,1-0.2,1.8,0.1
				c0.5,0.2,1.1,0,1.6,0c0.5,0,0.9-0.8,1.4-0.6c0.4,0.2,0.7,0.4,0.8,0.8c0.1,0.6,0.4,0.9,0.5,1.4c0,0.8,0.1,1.6-0.3,2.5
				c0.1-0.1,0.3-0.1,0.3-0.2c0.2-0.7,0.3-0.9,0.5-1.7c0.5-0.1,1-0.3,1.6-0.3c0.5,0,1-0.1,1.3,0.4c0.2,0.4,0.1,1,0.4,1.4
				c0.3,0.5,0.5,0.8,1,1.1c0.2,0.2,0.3,0.5,0.2,0.8c-0.1,0.3-0.2,0.5-0.3,0.9c-0.4,0.2-0.9,0.4-1.4,0.6c-0.2,0.1-0.4,0.3-0.7,0.3
				c-0.3,0-0.5,0-0.8,0c-0.8,0.2-1.5,0.1-2.2,0c-0.1,0-0.2,0.2-0.3,0.2c0,0,0,0.1,0,0.1c0.4,0.1,0.7,0.3,1.2,0.3
				c0.4,0,0.9-0.1,1.3-0.1c0.5,0,1.2-0.2,1.6,0.2C50.8,37.1,51,37.4,51.1,37.7z"/>
			<path d="M9.9,13.7c-0.3-0.1-0.5-0.2-0.8-0.2C8.6,13.4,4.3,14,3.8,14c0.1-0.1,0.6-0.6,0.6-0.6c0.6,0,4.7-0.1,5.4,0
				C10,13.4,10.1,13.5,9.9,13.7L9.9,13.7z"/>
			<path d="M3.3,13.3c-0.2,0.1-0.5,0.3-0.8,0.3c-0.1,0-0.3-0.1-0.4-0.2c0.1-0.1,0.2-0.2,0.3-0.3c0-0.1-0.1-0.2-0.2-0.5
				c0.4,0.2,0.7,0.3,1,0.4C3.2,13.1,3.3,13.2,3.3,13.3z"/>
			<path d="M45,34.7c-0.2,0.5-0.1,0.6,0.4,0.6c0.3,0,0.5,0,0.8,0c-0.2,0.3-1.1,0.4-1.4,0.1c-0.1-0.1-0.2-0.4-0.2-0.5
				c0.1-0.4,0.3-0.9,0.4-1.3c0.1-0.2,0.3-0.3,0.4-0.4c0,0,0.1,0,0.1,0.1c-0.2,0.2-0.4,0.5-0.5,0.7c0.4-0.2,0.8-0.6,1.2-0.7
				c0,0,0,0.1,0.1,0.1c-0.4,0.3-0.9,0.7-1.3,1C45,34.6,45,34.7,45,34.7L45,34.7z"/>
			<path d="M39.1,35.7c0.7-0.3,2.1-0.2,2.9-0.1C41.2,35.9,39.8,36.1,39.1,35.7z"/>
			<path d="M45,34.7c0.4,0,0.9-0.1,1.3-0.1c0,0,0,0.1,0,0.1c-0.1,0.1-0.1,0.1-0.2,0.2C45.8,35,45.2,34.9,45,34.7L45,34.7z"/>
			<path d="M44.2,34.7c-0.2-0.4-0.1-0.6,0.2-0.9C44.5,34.3,44.5,34.5,44.2,34.7z"/>
			<path d="M42.7,32.9c0.1,0.3,0.2,0.6,0.3,0.9c-0.4-0.2-0.5-0.5-0.5-0.9C42.6,33,42.6,33,42.7,32.9z"/>
			<path d="M43.1,34.6c-0.3,0.4-0.6,0.4-0.8,0c0.3-0.1,0.5-0.1,0.8-0.1C43.1,34.5,43.1,34.5,43.1,34.6z"/>
			<path d="M23,32.1c-0.8,0.4-0.8,0.4-0.9,0.7c0.6,0.3,1.2,0.6,1.7,0.9c0,0,0,0.1-0.1,0.1c-0.6-0.2-1.1-0.5-1.7-0.7
				c-0.2,0.7,0.4,1.1,0.6,1.7c-0.6-0.2-1-0.9-0.9-1.5c0-0.1-0.1-0.2-0.2-0.2c-0.3-0.1-0.5-0.3-0.6-0.6c-0.1-0.2-0.3-0.3-0.3-0.5
				c-0.1-0.3-0.3-0.1-0.4-0.2c-0.1,0-0.2-0.1-0.3-0.1c-0.1,0-0.3-0.3-0.3,0c0,0-0.1,0-0.2,0c0,0-0.1-0.1-0.1-0.1
				c0.1-0.4,0.2-0.7,0.4-1.2c0.1,0.3,0.1,0.6,0.2,1c0.1,0,0.2,0.1,0.3,0.1c0.2-0.2,0.7-0.9,0.8-1.1c0,0,0.1,0,0.1,0
				c-0.1,0.2-0.5,0.8-0.5,1c0.4,0,0.8-0.1,1.2-0.1c0,0,0,0.1,0,0.1c-0.4,0.1-0.8,0.3-1.2,0.4c0,0,0,0.1,0,0.1
				c0.4,0.1,0.8,0.3,1.2,0.4c0-0.1,0.1-0.3,0.1-0.4c0,0,0.1,0,0.1,0c0,0.1,0.1,0.2,0.1,0.3C22.5,32.1,22.8,32.1,23,32.1z M22,32.3
				c-0.3-0.1-0.5-0.1-0.9-0.2c0.2,0.3,0.4,0.5,0.6,0.7C21.8,32.7,21.9,32.5,22,32.3z"/>
			<path d="M19.9,32.5c-0.2,0.4,0.2,0.4,0.3,0.6l0,0c0,0.3,0,0.6,0.1,0.8c0.1,0.3,0.7,1.8,0.8,2.1c0,0-0.5-0.3-0.5-0.2
				c-0.2-0.1-0.3-0.2-0.3-0.3c-0.1-0.3-0.3-1.6-0.2-1.9c0-0.4-0.1-0.6-0.4-0.8C19.7,32.7,19.8,32.6,19.9,32.5L19.9,32.5z"/>
			<path d="M18.4,33.8c0-0.1,0-0.2,0.1-0.4c-0.2,0.1-0.3,0.3-0.4,0.4c-0.1-0.5,0.4-1,1.3-1.2c-0.1,0.1-0.1,0.2-0.2,0.2
				c-0.2,0.2-0.4,0.4-0.4,0.7C18.7,33.7,18.7,33.9,18.4,33.8z"/>
			<path d="M20.2,33.1c0.1-0.1,0.1-0.3,0.2-0.4c0.4,0.2,0.9,1.3,0.8,1.7c-0.1-0.1-0.2-0.1-0.2-0.2c-0.2-0.3-0.4-0.6-0.5-0.9
				C20.5,32.9,20.4,33,20.2,33.1L20.2,33.1z"/>
			<path d="M21,29.6c-0.7,0-1-0.4-1.4-1.5C20.1,28.6,20.6,29.1,21,29.6z"/>
			<path d="M19.9,32.5c-0.4-0.2-0.7-0.4-1.1-0.6c0,0,0-0.1,0-0.1c0.3,0,0.6,0,0.8,0.1C19.9,32.1,20.1,32.2,19.9,32.5L19.9,32.5z"/>
			<path d="M19.3,31.4c-0.5,0-0.5-0.3-0.5-0.6c-0.1,0-0.3-0.1-0.4-0.1c0,0,0-0.1,0-0.1c0.2,0,0.3,0,0.5-0.1
				C19,30.7,19.1,31,19.3,31.4z"/>
			<path d="M22.9,34.4c-0.4-0.1-0.7-0.4-0.7-0.9C22.5,33.7,22.9,33.9,22.9,34.4z"/>
			<path d="M16.4,31.3c0.2,0.1,0.5,0.1,0.7,0.2c-0.1,0.1-0.4,0.1-0.5,0.2c-0.1,0.1-0.2,0.1-0.3,0.1c-0.1,0-0.2,0-0.3,0
				c0-0.1,0.1-0.2,0.1-0.3C16.2,31.4,16.3,31.3,16.4,31.3z"/>
			<path d="M16.6,32.4c0.2-0.3,0.6-0.4,0.9-0.2C17.3,32.5,16.9,32.6,16.6,32.4z"/>
			<path d="M22.7,33.5c0.2,0.1,0.5,0.1,0.7,0.2c0,0.3-0.2,0.4-0.4,0.2C22.9,33.8,22.8,33.7,22.7,33.5C22.7,33.6,22.7,33.5,22.7,33.5
				z"/>
			<path d="M19.3,31.8c-0.3,0-0.7-0.3-0.7-0.5c0,0,0.1-0.1,0.2-0.1C18.9,31.3,19.1,31.5,19.3,31.8z"/>
			<path d="M22,31.5c-0.3,0-0.6,0.3-1,0.1c0,0,0-0.1,0-0.1c0.3,0,0.7-0.1,1-0.1C22,31.4,22,31.5,22,31.5z"/>
			<path d="M22.9,34.8c0.2,0.1,0.3,0.3,0.6,0.5C23.1,35.4,23.1,35.4,22.9,34.8C22.8,34.9,22.9,34.8,22.9,34.8z"/>
			<path d="M46.8,7.8c0,0.3,0.1,0.5,0.1,0.8c0.3-0.1,0.7-0.2,1.1-0.3c0.1,0.3,0.1,0.4-0.2,0.4c-0.3,0-0.5,0-0.8,0
				c-0.2,0-0.5,0-0.7-0.1c-0.1,0-0.2-0.1-0.2-0.2c0.1,0,0.3,0,0.4,0C46.6,8.3,46.7,8,46.8,7.8L46.8,7.8z"/>
			<path d="M49.8,4.8c0.2,0.4-0.4,2-1,2.5C48.9,6.4,49.7,5.7,49.8,4.8z"/>
			<path d="M51.3,9.1c0.5-1.1,0.4-1.8,0.5-2.5c0,0,0.1,0,0.1,0c0,0.4,0.1,0.8,0.1,1.2C51.9,8.2,51.7,8.8,51.3,9.1z"/>
			<path d="M51.2,11.4c-0.5-0.1-1.5-1.4-1.4-1.9C50.2,10.1,50.9,11,51.2,11.4z"/>
			<path d="M48.7,12.8c-0.4-0.5-0.6-1.8-0.8-2.4C48.3,11,48.6,12.2,48.7,12.8z"/>
			<path d="M48.8,8.6c-0.2-0.4,0-0.8,0.6-1.1C49.2,7.9,49,8.2,48.8,8.6z"/>
			<path d="M48.2,9.1c0.2,0.2,0.5,0.4,0.8,0.6c0.1,0.3-0.2,0.1-0.2,0.1C48.5,9.7,48.2,9.5,48.2,9.1C48.1,9.2,48.2,9.1,48.2,9.1z"/>
			<path d="M48,7.2c-0.3,0-0.6-0.7-0.5-1.4C47.7,6.3,47.9,6.7,48,7.2z"/>
			<path d="M49.6,9.1c-0.3,0-0.9-0.1-1.2-0.2c0.1-0.1,0.2-0.3,0.2-0.3C48.9,8.8,49.4,8.9,49.6,9.1C49.7,9.1,49.6,9.1,49.6,9.1z"/>
			<path d="M49.6,8c0.5-0.1,0.9-0.1,1.5-0.2C50.2,8.2,49.7,8.3,49.6,8z"/>
			<path d="M48.7,10.3c-0.4,0-0.8-0.3-0.8-0.5C48.2,10,48.4,10.1,48.7,10.3z"/>
			<path d="M47.5,9.7c0.2-0.1,0.3-0.2,0.6-0.4C48,9.8,47.9,9.9,47.5,9.7z"/>
			<path d="M48.1,7.5c0.1,0.2,0.1,0.3,0.2,0.5c0,0,0.1,0.3-0.1,0.1c-0.1-0.1-0.2-0.3-0.2-0.4C47.8,7.3,48,7.4,48.1,7.5z"/>
			<path d="M37.9,38.9c0.3,0.4,0.3,0.9,0.3,1.4C37.7,39.9,37.9,39.4,37.9,38.9L37.9,38.9z"/>
			<path d="M40.9,37.6c0.1-0.4,0.8-1.1,1.4-1.2C42,36.7,41.3,37.4,40.9,37.6C41,37.7,40.9,37.7,40.9,37.6z"/>
			<path d="M39.2,41.6c-0.4,0.2-0.7-0.1-0.6-0.8C38.8,41.1,39,41.3,39.2,41.6z"/>
			<path d="M38.8,38.6c0.4,0.1,1.2,0.2,1.6,0.3c0.1,0,0.2,0.2,0.2,0.3c0,0.1-0.2,0.2-0.3,0.2c-0.4-0.1-1.2-0.4-1.5-0.6
				C38.5,38.7,38.8,38.7,38.8,38.6z"/>
			<path d="M38.5,14.6c-0.2,0-0.4,0-0.5-0.1c-0.4-0.3-0.7-0.6-1.1-1c0,0,0.1-0.1,0.1-0.1c0.5,0.4,1,0.7,1.5,1.1
				C38.5,14.5,38.5,14.6,38.5,14.6z"/>
			<path d="M34.3,16.5c0.1,0.3,0.3,0.6,0.4,0.9c0,0.1,0.1,0.2,0.1,0.3c0,0.1,0,0.1,0.1,0.2c-0.1,0-0.2,0-0.2,0
				c-0.1-0.2-0.4-0.4-0.4-0.8C34.4,16.9,34.3,16.7,34.3,16.5L34.3,16.5z"/>
			<path d="M35,17.3c0.1,0.1,0.3,0.3,0.4,0.4c0.1,0.2-0.1,0.3-0.3,0.3C35.1,17.8,35,17.6,35,17.3C35,17.3,35,17.3,35,17.3z"/>
			<path d="M13,14.3c1.2,0.3,2.4,0.6,3.6,0.9c0,0.1,0.2,0.3,0.2,0.4c-1.2-0.1-2.6-0.8-3.8-1.2C12.9,14.4,13,14.4,13,14.3z"/>
			<path d="M21,16.5c-0.8-0.1-1.6-0.1-2.4-0.2c0.5-0.5,2.2-0.3,2.4,0C21,16.4,21,16.4,21,16.5z"/>
			<path d="M25,14.7c-0.3,0.2-0.8,0.5-1.1,0.7c-0.1,0-0.3,0-0.3,0c-0.1,0,0-0.1,0-0.2c0.3-0.1,0.9-0.4,1.2-0.6
				C25.1,14.5,24.9,14.7,25,14.7z"/>
			<path d="M25.7,17.5c0-0.3,0.1-0.7,0.1-1C26.2,16.6,26.1,17.1,25.7,17.5z"/>
		</g>
		<g>
			<path d="M61.5,20.1c0.3-0.3,0.6-0.6,0.8-0.9c0.3-0.8,0.5-1.6,0.4-2.4c-0.1-0.7-0.4-1.1-1-1.4c-0.3-0.1-0.6-0.3-0.8-0.5
				c-0.2-0.2-0.2-0.6-0.3-0.9c-0.1-0.5-0.4-0.6-0.8-0.4c-0.4,0.2-0.7,0.3-1.1,0.5c-0.3,0.2-0.6,0.5-0.8,0.8
				c-0.2,0.2-0.2,0.6-0.3,0.8c-0.6,1.1-0.7,2.2,0.1,3.2c0,0,0,0.1,0,0.2c-0.7-0.1-1.4-0.2-2.2-0.4c0.5-0.2,1.4-0.4,1.9-0.7
				c-1.1-0.1-2.2,0.5-2.9,1.2c0.7,0.3,1.3,0.4,1.9,0.6c0.3,0.1,0.5,0.3,0.7,0.5c-0.2,0.2-0.4,0.6-0.7,0.7c-0.6,0.2-1.2,0.2-1.9,0.3
				c-0.4,0.1-0.7,0.2-1.1,0.3c-0.2,0.1-0.4,0.2-0.6,0.3c-0.4,0.1-0.7,0.1-1.1,0.1c-0.1,0-0.2,0-0.2,0.1c-0.3,0.2-0.5,0.3-0.9,0.2
				c-0.3-0.1-0.6,0-0.8-0.1c-0.4-0.1-3.9-1.7-5.2-2.4c-1.3,0.2-5.5-1.5-5.9-1.6c0-0.2-0.1-0.2-0.1-0.4c-0.1,0-0.2,0-0.4,0.1
				c0,0,0,0.1,0,0.1c-0.1,0.3-0.2,0.7-0.5,0.8l0,0.4c0.4,0,0.8,0.1,1.2,0.3c0.2,0.1,0.8,0.4,1.9,0.8c1.6,0.5,3.5,1.1,5.7,1.7
				c1.5,0.7,3.2,1.2,3.4,1.3c0.5,0.2,1.2,0.1,1.5,0.9c1.1,0.3,1.2,0.3,1.6,0c-1.3-0.1-1.6-0.3-1.5-1c0.7,0.1,1.3,0.4,2,0.5
				c-0.1,1-0.6,2.1-1.2,1.9c-0.1-0.4-0.2-0.7-0.3-1.1h-0.1c0,0.4,0.1,0.7,0.1,1.1c0,0,0,0-0.1,0.1c-0.8-0.2-1.8-1-2.4,0.5
				c0.3,0.1,0.6,0.2,0.9,0.3c0.3,0.2,0.5,0.4,0.8,0.6c0.3,0.2,0.5,0.3,0.8,0c0.3-0.3,0.7-0.5,1.2-0.7c0.1,0.3,0.1,0.5,0.1,0.7
				c0,0.7,0,1.3,0,2c0,0.5,0.1,1.1,0.3,1.6c0.2,0.6,1.2,1.5,2,1.4c0.5-0.1,0.9,0,1.4,0c0.4,0,0.8,0.1,1.1-0.2c0,0,0.2,0,0.3,0.1
				c0.4,0.1,0.8,0.4,1,0.3c0.5-0.2,1-0.6,1.4-1.1c0.2-0.2,0.3-0.6,0.3-0.9c-0.1-0.6-0.4-1.2-0.5-1.8c-0.1-0.3,0.1-0.7-0.1-0.9
				c-0.4-0.8-0.8-1.6-1.5-2.2c-0.6-0.5-1.3-1-2-1.3c-0.5-0.2-1.1-0.3-1.7-0.2c-0.5,0.1-1.2,0.4-1.5-0.4c0-0.1-0.2-0.1-0.3-0.2
				c-0.6-0.1-1.1-0.2-1.7-0.4c0.4-0.3,0.8-0.6,1.4-0.5c1,0.1,2,0,2.9-0.6c0.6-0.4,1.3-0.8,2-1.2c0,0.8,0.3,1.4,0.7,2
				c0.2,0.3,0.3,0.4,0.5,0.3c0.6-0.7,0.3-1.4,0.2-2.2c0.7,0.9,1.1,2.1,2.7,1.8c-0.1-0.2-0.2-0.4-0.3-0.5c0-0.1-0.1-0.2-0.1-0.3
				c0.2-0.5-0.1-1-0.3-1.4C61.3,20.2,61.4,20.2,61.5,20.1z M52.3,26.5c-0.7,0.4-1,0.2-1.4-0.2c-0.2-0.2-0.4-0.3-0.7-0.4
				c0.1-0.3,0.2-0.2,0.5-0.1c0.7,0.3,1.5,0.2,2.2,0C53.2,26.3,52.6,26.4,52.3,26.5z M60.5,30.4c0.1,0.6-0.4,0.7-0.7,1
				c-0.2,0.2-0.4,0.1-0.6,0.3c-0.3-0.2-0.7-0.3-1.1-0.5c0.2-0.3,0.2-0.7,0.6-0.8c0.3-0.1,0.7-0.2,1-0.3c0.2-0.1,0.3-0.1,0.5-0.2
				c0,0.2,0,0.4,0,0.7C60.3,30.5,60.4,30.5,60.5,30.4z M54.9,24.6c1.1-0.1,1.3-0.1,2.3,0.4c1.8,0.9,2.9,2.7,2.8,4.5
				c-0.4,0.1-0.8,0.1-1.1,0.2c-0.2,0-0.3-0.1-0.5-0.1c-0.2,0-0.3,0-0.5,0.1c-0.1,0-0.2,0.1-0.3,0.1c-0.7-0.2-1.4-0.4-2-0.7
				c-0.6-0.2-1.1-0.6-1.5-1c0,0-0.1,0-0.1-0.1c0,0,0,0.1-0.1,0.1c0.5,0.6,1.1,1.1,1.9,1.4c0.6,0.2,1.1,0.4,1.7,0.6
				c0.5,0.2,0.3,0.6,0.3,0.9c0,0.2,0,0.4,0,0.7c-0.8-0.1-1.6-0.5-2.5-0.6c-0.5-0.1-1-0.5-1.1-1c-0.1-0.4-0.2-0.9-0.3-1.4
				c-0.1-1,0.1-1.3,0-2.3c0-0.4-0.1-0.6,0.2-0.9c1,0.1,1.9,0.1,3,0.2c0.3,0.1,0-0.1,0-0.2c-0.5-0.1-1-0.2-1.5-0.3
				c-0.5-0.1-0.4-0.1-0.9-0.2C54.6,24.8,54.9,24.7,54.9,24.6z M39.2,19.4c-0.2-0.1-0.5-0.2-0.7-0.4c0.4,0,0.7,0,1.1,0.1
				c0.2,0,2.3,0.6,4.6,1.3c2.6,0.9,5.2,2,5.4,2c0,0,0,0.1,0,0.1c-0.3,0-0.5-0.1-0.8-0.1c0,0.2-2.4-0.8-4.8-1.6
				C41.6,20,39.3,19.4,39.2,19.4z M49.5,22.9l0-0.1c1.4-0.2,1.4-0.2,1.7,0.6C50.6,23.2,50,23.1,49.5,22.9z M51.2,22.5
				c0.3-0.1,0.6-0.1,0.8-0.2C51.8,22.5,51.7,23.1,51.2,22.5z M54.3,21.8c0.6-0.2,1.1-0.3,1.7-0.5C55.7,21.6,55,21.9,54.3,21.8z
				 M57.2,20c-0.5-0.6-1.3-0.5-1.9-0.8c0-0.1,0-0.1,0.1-0.2c0.2,0,0.4,0.1,0.6,0.1c0.5,0.1,0.9,0.3,1.4,0.4
				C57.4,19.6,57.3,19.8,57.2,20z M61.1,16.8c-0.1-0.5-0.2-0.9-0.3-1.4C61.6,15.7,61.1,16.3,61.1,16.8z M59.3,19.9
				c-0.1,0-0.1,0.2-0.1,0.2c0,0.7,0.1,1.4,0.1,2.1c-0.3-0.4-0.7-0.7-0.6-1.3c0-0.2-0.2-0.5-0.3-0.6c-0.4-0.3-0.3-0.5-0.2-0.8
				c0.3,0.1,0.6,0.2,1,0.3c-0.3-0.4-0.5-0.8-0.9-0.6c-0.2-0.4-0.4-0.7-0.6-1.1c-0.1-0.2-0.1-0.4-0.1-0.6c0.2-0.9,0.5-1.2,0.8-2.1
				c0-0.1,0.1-0.1,0.1-0.2c0.5-0.3,1.1-0.7,1.7-1c0.1,0.4,0.2,0.7,0.3,0.9c0.3,0.7,0.4,1,0.4,1.7c0.1,0.7-0.1,1.5-0.5,2.1
				C60,19.4,59.8,19.9,59.3,19.9z M61.4,21.5c0,0.1,0,0.3-0.1,0.4c0,0-0.1,0.1-0.1,0.1c0,0.1,0,0.2,0.1,0.3
				c-0.1-0.1-0.2-0.1-0.3-0.2c-0.2-0.3-0.4-0.5-0.6-0.8c0-0.1,0-0.2,0-0.3c0-0.1-0.1-0.2-0.2-0.3c0.1,0,0.3-0.1,0.4-0.1
				c0.1,0,0.3-0.1,0.4-0.1C61.2,20.8,61.3,21.1,61.4,21.5z M61.3,19.7c-0.3,0.3-0.6,0.5-1,0.3c0.3-0.7,0.6-1.4,0.9-2.1
				c0,0,0.2,0,0.2,0c0.3-0.7,0.2-1.4,0.1-2.1c0.4,0.1,0.7,0.5,0.7,0.8C62.4,17.7,62.2,18.8,61.3,19.7z"/>
			<path d="M51.5,24.2c-0.1,0.7-0.3,0.9-0.7,0.8C51,24.7,51.1,24.3,51.5,24.2L51.5,24.2z"/>
			<path d="M60.1,18.1c-0.2,0.5-0.4,1.1-0.7,1.7C59,19.3,59.4,18.4,60.1,18.1z"/>
		</g>
	</g>
	<g>
		<path d="M89.5,34.2c-0.3,0.1-0.7,0.3-1,0.5c-0.2,0.3-0.4,0.7-0.6,1.1c0.6-0.3,1.8,0,1-0.9c0.5-0.2,1-0.4,1.6-0.6
			c0.2-0.1,0.5-0.1,0.8,0c1.1,0.5,1.4,0.8,2.5,1.4c0.1,0,0.2,0.1,0.2,0.2c0.3,0.8,0.6,1.5,0.9,2.4c-0.5,0.1-0.9,0.1-1.3,0.2
			c-1,0.3-1.4,0.2-2.4,0.2c-1-0.1-1.9-0.4-2.6-1.2c-0.4-0.4-0.9-0.8-0.8-1.5c0-0.1-0.2-0.2-0.3-0.2c0,0.2,0,0.4,0,0.6
			c0,0.3,0,0.7,0,1c0.8,0.6,1.6,1.1,2.4,1.7c0,0-0.1,0.2,0,0.3c0.4,0.3,0.9,0.5,1.4,0.6c0.3,0,0.6,0.1,0.9,0.1c0.3,0,0.6,0,1,0
			c0.2-0.2,0.4-0.5,0.6-0.6c0.3-0.2,0.8-0.1,1.2-0.2c0.6,0,0.9-0.3,0.7-0.9c-0.1-0.5-0.2-1-0.4-1.5c-0.2-0.4-0.5-0.9-0.8-1.3
			c-0.2-0.3-0.6-0.4-0.9-0.6C92.4,33.8,91,33.4,89.5,34.2C89.5,34.2,89.5,34.2,89.5,34.2z M91.4,39.1c0.6,0,1.2,0,1.8,0
			C92.5,39.9,92,39.1,91.4,39.1z"/>
		<path d="M90.4,37.6c-0.6-0.4-1.8-0.9-2.5-1.4C88.6,35.8,90.2,36.6,90.4,37.6z"/>
	</g>
	<g>
		<path d="M82.1,26.7c-0.2-0.3-0.4-0.6-0.7-0.9c0,0.7-0.2,1.2,0.4,1.2c0,0.5-0.1,1-0.2,1.5c0,0.2-0.1,0.5-0.3,0.6
			c-0.8,0.7-1.3,0.8-2.1,1.5c-0.1,0-0.2,0-0.2,0.1c-3.1,1.1,0.4-2.4-2.4-0.2c0.4-0.3,0.7-0.8,0.8-1.1c0.2-0.9,0.3-1.2,0.8-2
			c0.4-0.8,0.7-1.4,1.6-1.7c0.5-0.1,1-0.5,1.5-0.1c0,0,0.2,0,0.3-0.1c-0.2-0.1-0.3-0.2-0.5-0.3c-0.3-0.1-0.3-0.3-0.9-0.2
			c-0.6,0.1-1.5,0.7-2.2,1.2c0,0-0.8,1.4-0.6,1.2c-0.2,0.5-1.3,2.6-1.4,3c-0.2,0.5-0.1,0.9,0.5,1c0.5,0.1,0.9,0.2,1.4,0.2
			c0.4,0,0.9,0,1.3-0.2c0.3-0.1,0.6-0.4,0.9-0.5c1.3-0.6,2.1-1.6,2.1-3.1c0,0,0,0,0,0C82.1,27.3,82.1,27,82.1,26.7z"/>
		<path d="M78.5,28.7c1.2-0.4,2.1-1.8,2.5-3.1C81.4,26.8,80.1,29,78.5,28.7z"/>
	</g>
</g>
</svg>
